<?xml version="1.0" standalone="no"?>
<!DOCTYPE svg PUBLIC "-//W3C//DTD SVG 20010904//EN"
 "http://www.w3.org/TR/2001/REC-SVG-20010904/DTD/svg10.dtd">
<svg version="1.0" xmlns="http://www.w3.org/2000/svg"
 width="400.000000pt" height="533.000000pt" viewBox="0 0 400.000000 533.000000"
 preserveAspectRatio="xMidYMid meet">
<metadata>
Created by potrace 1.16, written by Peter Selinger 2001-2019
</metadata>
<g transform="translate(0.000000,533.000000) scale(0.100000,-0.100000)"
fill="#000000" stroke="none">
<path d="M0 4110 l0 -1220 21 0 c12 0 39 5 61 12 29 9 41 9 50 0 7 -7 38 -12
70 -12 61 0 78 13 78 59 0 39 29 23 32 -16 2 -27 8 -39 21 -41 24 -5 22 19
-14 118 -46 131 -44 122 -23 118 10 -2 19 -10 19 -18 0 -8 9 -17 20 -20 13 -4
23 -18 27 -40 4 -19 13 -62 21 -95 l13 -60 142 -2 c102 -1 142 2 142 10 -1 7
-9 55 -20 107 l-19 95 26 80 c14 44 32 87 41 95 13 13 14 10 8 -28 l-6 -42 21
21 21 21 25 -37 c27 -40 53 -123 58 -190 10 -111 26 -247 35 -305 7 -36 13
-74 14 -85 7 -47 165 -384 191 -405 8 -7 15 -18 15 -25 0 -12 18 -34 94 -118
15 -18 32 -44 38 -58 5 -15 18 -29 29 -32 14 -4 19 -14 20 -44 0 -28 2 -33 8
-19 7 19 8 19 13 -2 4 -12 13 -22 22 -22 10 0 16 -8 16 -21 0 -24 43 -69 66
-69 7 0 13 -3 12 -7 -5 -17 35 -62 60 -68 15 -3 44 -17 64 -31 37 -24 68 -31
68 -16 0 4 18 8 41 9 56 3 139 31 139 49 0 9 10 14 28 14 16 0 37 7 48 15 10
8 34 15 52 15 17 0 32 5 32 10 0 6 12 10 27 10 29 0 113 45 113 61 0 6 21 20
48 31 26 11 56 30 67 40 11 11 51 43 89 71 38 29 74 61 80 72 6 10 19 26 28
35 9 8 37 53 61 100 24 47 58 105 75 130 17 25 34 58 37 73 4 15 12 30 18 34
6 4 8 0 4 -10 -3 -9 -2 -19 2 -21 5 -3 11 18 15 47 9 76 10 80 24 105 7 12 10
31 7 42 -3 10 -3 30 1 45 6 22 11 26 33 22 24 -5 24 -4 6 9 -10 8 -22 14 -26
14 -14 0 -28 96 -19 131 4 19 11 71 14 117 3 46 9 95 12 109 l7 25 15 -33 c8
-19 16 -28 19 -21 3 6 10 9 16 5 7 -4 8 0 2 13 -4 10 -10 29 -13 42 -3 14 -10
21 -18 18 -8 -3 -14 1 -14 8 0 8 4 16 10 18 5 2 14 24 18 50 6 29 19 55 35 70
57 53 78 68 92 68 8 0 15 4 15 9 0 6 9 9 20 8 11 -1 20 -6 20 -11 0 -5 2 -7 5
-4 10 9 -7 38 -22 38 -26 0 -7 25 21 28 23 3 37 -6 77 -50 82 -89 93 -156 49
-304 -10 -33 -21 -81 -25 -106 l-7 -46 69 5 c37 2 74 6 81 8 20 7 13 36 -15
61 -22 19 -25 25 -14 38 7 9 11 29 9 46 -4 26 -2 29 14 24 22 -7 22 -1 3 37
-12 22 -13 34 -5 49 11 21 30 27 30 10 0 -5 8 -10 19 -10 38 0 44 -23 37 -146
l-7 -115 93 1 c125 2 133 5 134 40 1 24 -3 30 -19 30 -11 0 -26 -8 -33 -17
-12 -17 -13 -16 -13 7 0 35 25 68 41 52 22 -22 29 -12 23 32 -5 28 -3 46 4 50
6 4 11 16 11 27 0 22 17 24 73 8 41 -11 57 -37 57 -90 0 -16 5 -29 10 -29 6 0
10 27 10 60 0 84 18 160 36 153 8 -3 14 0 14 6 0 6 6 11 14 11 8 0 16 4 18 9
2 5 9 3 16 -5 10 -11 10 -14 0 -14 -7 0 -19 -10 -27 -22 -12 -19 -11 -23 10
-39 13 -10 29 -19 34 -19 6 0 3 -5 -5 -10 -13 -9 -13 -11 0 -19 12 -8 12 -13
0 -36 -10 -19 -11 -28 -2 -37 8 -8 14 -5 21 15 6 15 8 34 5 42 -6 15 33 37 49
28 15 -9 6 -41 -13 -46 -22 -6 -27 -32 -8 -44 15 -8 20 -9 105 -11 l62 -2 6
-37 c10 -58 25 -83 52 -83 l23 0 0 440 c0 439 0 440 -21 440 -12 0 -19 5 -16
13 2 6 11 11 21 9 15 -3 16 57 16 753 l0 755 -1194 0 c-1023 0 -1195 -2 -1199
-14 -5 -12 4 -14 47 -10 51 4 54 3 58 -21 4 -17 0 -29 -11 -35 -14 -8 -14 -12
-3 -30 7 -12 11 -24 8 -27 -10 -10 -36 19 -36 38 0 14 -7 19 -29 19 -20 0 -32
6 -36 19 -3 11 -19 21 -36 25 -22 4 -30 10 -25 21 4 13 -90 15 -769 15 l-775
0 0 -1220z m1934 198 c11 -6 43 -13 71 -14 41 -2 53 -7 75 -33 14 -17 31 -31
38 -31 6 0 12 -4 12 -10 0 -5 5 -10 11 -10 6 0 25 -11 43 -25 18 -14 38 -25
43 -25 6 0 14 -11 17 -25 4 -14 13 -25 21 -25 8 0 15 -9 15 -19 0 -11 7 -26
15 -35 8 -8 15 -28 15 -45 0 -17 9 -45 20 -63 11 -18 20 -43 20 -56 0 -13 5
-33 12 -45 6 -12 13 -44 16 -72 2 -27 4 -58 5 -67 1 -10 5 -18 9 -18 4 0 8 -7
8 -15 0 -9 15 -31 33 -50 18 -19 53 -73 76 -120 37 -74 44 -100 52 -183 11
-112 2 -295 -16 -332 -7 -14 -18 -49 -26 -79 -11 -45 -11 -55 -1 -59 10 -3 6
-12 -12 -31 -17 -18 -26 -39 -28 -71 -2 -33 -7 -45 -19 -44 -9 1 -27 -21 -44
-51 -26 -49 -31 -53 -62 -50 -25 2 -31 -1 -23 -10 8 -9 3 -17 -15 -29 -14 -9
-30 -14 -35 -11 -5 3 -16 -5 -24 -17 -11 -15 -16 -18 -16 -8 -1 9 -12 2 -29
-17 -27 -33 -51 -43 -51 -22 0 5 -4 8 -9 5 -28 -18 -39 71 -16 127 17 41 20
123 6 160 -12 32 -84 102 -89 87 -2 -6 3 -19 12 -29 24 -26 19 -33 -11 -17
-25 12 -100 16 -128 6 -5 -2 -25 4 -42 13 -25 13 -33 14 -34 5 0 -10 -2 -10
-6 0 -2 6 -11 12 -19 12 -9 0 -12 -5 -8 -11 4 -8 1 -8 -12 -1 -11 5 -25 7 -31
5 -7 -3 -13 0 -13 7 0 6 -4 9 -9 5 -5 -3 -12 -1 -15 4 -3 5 -28 7 -56 5 -27
-2 -50 0 -50 4 1 18 17 30 44 30 15 0 32 6 37 13 8 12 10 12 18 0 7 -10 18
-11 47 -4 l38 9 -37 22 c-21 12 -49 22 -61 22 -24 0 -93 -42 -112 -68 -8 -11
-27 -15 -66 -15 -43 1 -65 8 -103 32 -54 34 -72 37 -99 18 -14 -10 -15 -18 -7
-40 8 -21 17 -27 42 -27 28 0 30 2 18 17 -12 15 -12 16 6 9 11 -5 29 -11 40
-14 11 -2 27 -10 35 -17 8 -7 24 -15 35 -18 16 -5 15 -6 -5 -5 -14 0 -27 -1
-30 -2 -3 -1 -14 -3 -25 -5 -51 -10 -114 -31 -154 -52 -25 -13 -68 -26 -97
-29 -45 -6 -61 -14 -101 -51 -38 -36 -44 -46 -33 -54 13 -8 13 -10 0 -19 -9
-6 -10 -10 -3 -10 6 0 11 -8 11 -17 -1 -10 2 -34 6 -53 7 -35 7 -35 -8 -10 -9
14 -16 34 -16 45 -1 11 -4 14 -7 8 -6 -18 -33 -16 -33 1 0 8 -7 16 -15 20 -8
3 -15 15 -15 27 0 25 -41 101 -73 137 -27 29 -46 190 -46 377 1 136 9 198 22
160 8 -24 68 -46 91 -33 12 7 16 5 16 -7 0 -19 14 -19 29 -1 8 9 25 13 47 10
25 -3 33 -1 28 7 -4 8 0 9 16 4 17 -5 21 -4 17 6 -2 8 -10 13 -16 11 -7 -1
-21 4 -31 11 -19 13 -19 14 0 45 22 35 50 43 50 14 0 -11 9 -27 21 -38 41 -37
139 -12 139 35 0 36 15 42 47 18 43 -32 43 -39 -2 -53 -52 -16 -16 -17 50 -2
51 12 51 12 69 69 13 39 16 69 12 94 -8 39 -68 129 -79 118 -3 -3 -14 13 -23
37 -15 38 -19 41 -43 35 -14 -3 -35 -6 -46 -6 -79 3 -116 -1 -191 -19 -46 -11
-88 -19 -93 -16 -4 3 -22 -4 -39 -14 -36 -22 -38 -17 -18 32 12 27 13 61 7
162 -8 133 2 198 36 237 7 8 13 23 13 32 0 9 5 17 12 17 6 0 9 3 5 6 -9 9 78
91 105 99 13 4 30 13 38 20 8 7 51 15 97 17 l82 4 -14 -25 c-7 -14 -61 -72
-119 -129 -118 -115 -144 -163 -42 -80 35 29 65 58 65 64 1 14 29 26 42 18 5
-3 9 0 9 5 0 6 7 11 15 11 9 0 12 6 9 15 -4 9 0 15 8 15 7 0 32 9 53 21 27 13
51 18 74 15 32 -5 91 16 91 32 0 8 36 24 95 43 22 6 54 18 72 26 17 7 39 13
50 13 10 0 25 5 33 10 18 12 134 4 164 -12z m1886 -318 c0 -5 -4 -10 -10 -10
-5 0 -10 5 -10 10 0 6 5 10 10 10 6 0 10 -4 10 -10z m-70 -28 c0 -11 -12 -22
-32 -30 -38 -14 -41 -12 -32 22 5 21 12 26 35 26 21 0 29 -5 29 -18z m-460
-39 c0 -25 -3 -43 -6 -40 -11 10 -13 87 -3 87 5 0 9 -21 9 -47z m523 -13 c3
-14 -1 -25 -13 -32 -10 -6 -16 -17 -14 -23 10 -25 -23 -49 -69 -49 -61 -1 -61
15 0 36 41 15 45 18 26 24 -26 7 -31 24 -8 24 8 0 20 9 27 20 16 26 44 26 51
0z m117 10 c0 -5 -4 -10 -10 -10 -5 0 -10 5 -10 10 0 6 5 10 10 10 6 0 10 -4
10 -10z m-70 -96 c0 -8 -4 -12 -10 -9 -5 3 -10 10 -10 16 0 5 5 9 10 9 6 0 10
-7 10 -16z m60 -19 c0 -8 -7 -15 -16 -15 -14 0 -14 3 -4 15 7 8 14 15 16 15 2
0 4 -7 4 -15z m-96 -29 c-3 -8 -12 -12 -20 -9 -17 6 -9 23 11 23 8 0 12 -6 9
-14z m43 -39 c-3 -7 -10 -11 -17 -9 -7 2 -16 -2 -20 -9 -10 -15 -31 -2 -24 15
3 7 19 13 35 14 19 0 29 -4 26 -11z m-3558 -24 c13 -3 52 -33 87 -66 l64 -61
0 -60 c0 -34 -7 -81 -15 -104 -9 -24 -18 -70 -22 -103 -6 -64 -16 -71 -63 -44
-33 19 -37 19 -43 -5 -8 -30 -30 -25 -25 5 5 24 -1 29 -29 26 -18 -3 -16 68 3
114 17 41 14 54 -6 30 -7 -8 -20 -15 -30 -15 -9 0 -25 -9 -35 -20 -10 -11 -25
-22 -34 -25 -10 -3 -17 -18 -18 -37 -3 -37 -24 -56 -36 -30 -9 20 18 92 35 92
26 0 98 140 98 192 0 19 5 39 11 45 8 8 7 17 -4 33 -20 29 -11 54 17 45 11 -4
32 -9 45 -12z m3393 -183 c-1 -7 3 -19 10 -27 11 -14 8 -15 -22 -8 -45 10 -47
11 -25 35 19 21 42 21 37 0z m-2522 1 c24 -7 24 -8 5 -18 -11 -6 -37 -14 -57
-18 -21 -4 -58 -20 -83 -36 -49 -31 -60 -35 -49 -18 3 6 0 15 -7 20 -12 7 -12
9 0 9 8 0 27 12 42 26 38 36 97 50 149 35z m2745 -2 c10 -15 -1 -23 -20 -15
-9 3 -13 10 -10 16 8 13 22 13 30 -1z m-2701 -61 c6 -4 -5 -8 -25 -8 -19 0
-64 -14 -98 -30 -67 -33 -93 -32 -51 1 43 34 82 51 116 52 19 1 34 6 35 11 0
6 3 4 6 -4 3 -8 11 -18 17 -22z m2606 12 c0 -11 -7 -20 -15 -20 -15 0 -21 21
-8 33 12 13 23 7 23 -13z m-136 -3 c18 -13 18 -15 -5 -35 -18 -17 -19 -22 -7
-22 23 0 28 -23 9 -37 -14 -11 -13 -12 9 -13 29 0 64 -35 56 -56 -7 -18 -33
-18 -43 0 -4 8 -27 16 -51 19 -46 4 -57 19 -20 28 l23 5 -23 6 c-22 6 -23 10
-17 50 11 66 31 82 69 55z m-454 -28 c0 -5 -7 -9 -15 -9 -15 0 -20 12 -9 23 8
8 24 -1 24 -14z m-2743 -24 c4 -30 -13 -33 -22 -5 -7 21 3 46 13 35 3 -3 8
-17 9 -30z m943 -5 c0 -32 -14 -39 -39 -19 -21 17 -21 19 -5 19 18 1 18 1 2
14 -27 20 -22 26 12 13 17 -6 30 -18 30 -27z m2153 0 c-5 -93 -33 -105 -33
-14 0 47 3 55 18 52 13 -2 17 -12 15 -38z m-393 10 c0 -5 -7 -10 -15 -10 -8 0
-15 5 -15 10 0 6 7 10 15 10 8 0 15 -4 15 -10z m-1950 -16 c0 -11 -5 -14 -16
-10 -9 3 -25 6 -35 6 -11 0 -17 5 -14 10 11 17 65 12 65 -6z m1906 -31 c-10
-10 -19 5 -10 18 6 11 8 11 12 0 2 -7 1 -15 -2 -18z m794 17 c0 -5 -4 -10 -10
-10 -5 0 -10 5 -10 10 0 6 5 10 10 10 6 0 10 -4 10 -10z m-2550 -30 c0 -5 -5
-10 -11 -10 -5 0 -7 5 -4 10 3 6 8 10 11 10 2 0 4 -4 4 -10z m2550 -25 c0 -8
-4 -15 -10 -15 -5 0 -10 7 -10 15 0 8 5 15 10 15 6 0 10 -7 10 -15z m-821 -42
c2 -1 -2 -9 -8 -17 -7 -8 -11 -20 -10 -28 3 -27 -1 -38 -16 -38 -8 0 -15 7
-15 15 0 9 -7 18 -15 21 -20 8 -19 34 1 62 16 23 17 23 38 5 11 -10 23 -19 25
-20z m451 7 c0 -5 -4 -10 -10 -10 -5 0 -10 5 -10 10 0 6 5 10 10 10 6 0 10 -4
10 -10z m64 -16 c10 -26 7 -34 -15 -34 -15 0 -19 4 -15 16 3 9 6 20 6 25 0 15
17 10 24 -7z m-424 -51 c0 -13 -5 -23 -11 -23 -6 0 -9 7 -5 15 3 8 1 15 -4 15
-6 0 -10 -4 -10 -10 0 -5 -4 -10 -9 -10 -5 0 -7 9 -4 19 7 28 43 23 43 -6z
m-2617 -90 c-10 -29 -14 -34 -23 -28 -6 4 -4 14 3 25 15 25 29 26 20 3z m-23
-83 c0 -5 -5 -10 -11 -10 -5 0 -7 5 -4 10 3 6 8 10 11 10 2 0 4 -4 4 -10z
m-550 -36 c0 -8 -5 -12 -10 -9 -6 4 -8 11 -5 16 9 14 15 11 15 -7z m877 -301
c-3 -10 -5 -4 -5 12 0 17 2 24 5 18 2 -7 2 -21 0 -30z m1001 -11 c2 -7 -3 -12
-12 -12 -9 0 -16 7 -16 16 0 17 22 14 28 -4z m-211 -12 c21 -16 29 -18 40 -8
11 8 16 9 21 1 4 -6 20 -15 35 -18 26 -7 26 -8 10 -19 -21 -14 -131 -53 -153
-55 -8 0 -26 -2 -40 -4 -14 -2 -30 2 -37 9 -7 7 -22 10 -33 7 -14 -4 -20 0
-20 10 0 8 -6 17 -12 20 -7 2 -9 8 -5 13 4 5 12 2 17 -6 5 -8 12 -11 16 -7 4
3 2 13 -5 20 -15 19 8 38 57 48 63 12 83 10 109 -11z m326 -121 c17 -50 18
-69 3 -136 -3 -13 -1 -25 5 -28 19 -12 9 -35 -15 -35 -19 0 -24 -5 -23 -20 1
-11 5 -20 10 -20 4 0 5 -4 2 -10 -3 -5 -15 -10 -26 -10 -10 0 -19 -5 -19 -11
0 -6 -7 -17 -15 -26 -8 -8 -13 -19 -10 -24 4 -5 -3 -9 -14 -9 -12 0 -21 -6
-21 -12 -1 -21 -41 -65 -46 -51 -7 16 -34 5 -34 -14 0 -8 -5 -11 -12 -7 -6 4
-17 -1 -25 -11 -7 -11 -13 -15 -13 -11 0 5 -7 3 -15 -4 -8 -7 -21 -10 -28 -7
-8 3 -18 -7 -26 -25 -11 -25 -15 -27 -25 -13 -13 18 -78 23 -110 10 -16 -7
-18 -5 -13 8 3 9 3 16 -1 16 -30 -5 -42 3 -42 29 l-1 27 -16 -30 -16 -30 -10
30 c-13 38 -30 55 -56 55 -12 0 -21 6 -21 14 0 9 -15 17 -40 21 -22 4 -40 11
-40 17 0 5 -7 16 -15 24 -8 9 -18 27 -22 42 -3 15 -13 33 -20 41 -17 17 -8
100 13 117 7 6 11 14 7 17 -3 4 -4 7 -1 7 9 0 58 -49 58 -58 0 -4 8 -17 19
-28 10 -11 27 -38 37 -60 25 -53 68 -93 88 -82 10 6 28 3 50 -7 33 -16 37 -16
66 2 25 14 32 15 39 4 6 -9 11 -10 15 -2 4 6 19 11 34 11 34 0 112 30 112 43
0 5 14 23 31 39 65 63 13 104 -95 75 -90 -24 -209 -22 -266 4 -52 24 -80 47
-80 66 0 32 27 42 136 48 59 3 144 14 188 25 45 10 117 22 160 25 44 4 89 11
100 15 32 13 39 8 59 -51z m117 -204 c0 -8 -2 -15 -4 -15 -2 0 -6 7 -10 15 -3
8 -1 15 4 15 6 0 10 -7 10 -15z"/>
<path d="M1851 3729 c-10 -17 -15 -19 -21 -8 -7 11 -10 11 -15 -2 -5 -14 -11
-15 -43 -4 -42 15 -62 6 -62 -27 0 -13 -5 -18 -14 -15 -14 6 -26 -19 -26 -57
0 -12 5 -16 15 -12 9 3 15 0 15 -10 0 -8 -4 -12 -10 -9 -17 11 -11 -15 11 -46
17 -24 28 -29 61 -29 24 0 49 -7 60 -16 14 -13 21 -14 32 -5 10 8 16 9 21 1 3
-5 2 -10 -3 -10 -10 0 -82 -65 -82 -75 0 -3 9 -1 20 5 11 6 20 8 20 5 0 -4 23
12 51 34 59 47 69 50 69 20 0 -11 8 -34 17 -50 34 -57 122 -46 143 17 13 40
19 41 48 14 26 -25 27 -28 6 -51 -15 -16 -12 -17 55 -16 68 0 69 1 55 21 -18
26 -18 40 1 32 8 -3 22 -9 30 -12 10 -4 15 0 15 10 0 9 -7 19 -15 22 -8 4 -15
15 -15 26 0 18 6 20 58 17 31 -2 63 0 70 4 7 5 12 4 12 -2 0 -6 3 -11 8 -11 4
0 8 20 10 45 2 34 -1 47 -13 51 -8 3 -15 12 -15 20 0 8 -4 14 -9 14 -5 0 -11
9 -14 20 -3 13 -14 20 -28 20 -12 0 -43 13 -68 29 -64 41 -216 73 -196 42 7
-12 -207 -3 -219 9 -14 14 -20 13 -35 -11z m271 -140 c29 -6 57 -15 63 -20 5
-5 18 -9 30 -10 20 0 20 0 0 -9 -19 -7 -18 -9 8 -19 16 -6 33 -11 38 -11 5 0
9 -4 9 -9 0 -6 -30 1 -67 14 -70 24 -97 30 -196 41 -64 7 -65 20 -2 27 22 2
45 4 52 5 7 1 36 -3 65 -9z m-127 -49 c3 -5 1 -10 -4 -10 -6 0 -11 5 -11 10 0
6 2 10 4 10 3 0 8 -4 11 -10z m120 -12 c41 -9 135 -66 135 -82 0 -4 -12 0 -27
10 -53 35 -118 64 -143 64 -14 0 -36 3 -49 7 -23 6 -23 7 -5 14 10 4 26 5 34
2 8 -3 33 -9 55 -15z m-36 -47 c18 -11 -10 -19 -59 -16 -54 4 -56 5 -40 15 19
12 80 13 99 1z"/>
<path d="M1880 3380 c8 -5 20 -10 25 -10 6 0 3 5 -5 10 -8 5 -19 10 -25 10 -5
0 -3 -5 5 -10z"/>
<path d="M1943 3300 c26 -16 152 -25 161 -11 5 7 -5 11 -31 11 -21 0 -63 3
-93 6 -43 4 -51 3 -37 -6z"/>
<path d="M1145 3290 c3 -5 8 -10 11 -10 2 0 4 5 4 10 0 6 -5 10 -11 10 -5 0
-7 -4 -4 -10z"/>
<path d="M1218 3293 c7 -3 16 -2 19 1 4 3 -2 6 -13 5 -11 0 -14 -3 -6 -6z"/>
<path d="M1223 3240 c-13 -5 -23 -12 -23 -15 0 -8 53 6 65 16 12 12 -13 11
-42 -1z"/>
<path d="M1140 3220 c-22 -7 -21 -8 13 -9 23 -1 36 3 32 9 -7 11 -10 11 -45 0z"/>
<path d="M3465 3110 c3 -5 8 -10 11 -10 2 0 4 5 4 10 0 6 -5 10 -11 10 -5 0
-7 -4 -4 -10z"/>
<path d="M3485 2989 c-25 -7 -31 -14 -33 -39 -3 -35 21 -42 38 -10 6 11 14 19
18 19 4 -1 15 -1 25 0 15 1 15 4 5 21 -7 11 -15 20 -18 19 -3 0 -19 -5 -35
-10z"/>
<path d="M2590 2370 c0 -5 5 -10 11 -10 5 0 7 5 4 10 -3 6 -8 10 -11 10 -2 0
-4 -4 -4 -10z"/>
<path d="M2600 2276 c1 -39 14 -100 34 -153 8 -22 18 -54 21 -70 9 -43 6 -144
-5 -183 -26 -98 -41 -163 -37 -173 5 -17 102 138 167 268 70 140 82 195 55
255 -10 22 -20 38 -23 35 -3 -2 -17 4 -31 14 -16 12 -57 23 -104 28 l-77 9 0
-30z"/>
<path d="M1248 1925 c2 -14 6 -25 8 -25 2 0 4 11 4 25 0 14 -4 25 -9 25 -4 0
-6 -11 -3 -25z"/>
<path d="M1214 1852 c-26 -33 -45 -69 -43 -79 1 -4 -1 -15 -4 -23 -13 -28 -36
-183 -30 -194 4 -6 6 -25 5 -42 -2 -21 3 -36 13 -41 10 -6 17 -31 21 -73 3
-36 10 -75 16 -87 6 -12 8 -31 5 -42 -3 -12 5 -54 18 -94 16 -50 23 -64 24
-44 1 35 17 27 26 -14 8 -34 43 -119 50 -119 2 0 4 24 3 54 -1 51 17 120 31
112 3 -2 6 27 7 65 0 56 -2 65 -12 51 -11 -15 -13 -12 -19 23 -3 22 -8 50 -10
61 -3 12 4 31 15 44 11 13 20 30 20 39 0 14 2 14 10 1 7 -11 9 -4 6 24 -3 21
-9 43 -15 49 -6 6 -6 18 0 34 6 16 5 22 -1 18 -6 -3 -10 -13 -10 -21 0 -8 -5
-14 -11 -14 -7 0 -8 14 -4 39 3 21 1 58 -5 82 -29 116 -64 219 -74 218 -6 0
-20 -12 -32 -27z m125 -358 c19 12 12 -20 -8 -38 -17 -16 -19 -16 -24 5 -7 27
3 56 13 39 4 -7 13 -9 19 -6z"/>
<path d="M3240 1688 c0 -20 -50 -118 -61 -118 -14 0 -29 -16 -68 -73 -18 -27
-31 -51 -28 -54 10 -9 27 8 27 27 0 10 9 21 19 25 10 3 21 15 24 25 3 12 14
20 27 20 11 0 19 4 16 9 -7 10 40 24 53 16 10 -6 19 78 13 113 -4 22 -22 31
-22 10z m0 -88 c0 -5 -5 -10 -11 -10 -5 0 -7 5 -4 10 3 6 8 10 11 10 2 0 4 -4
4 -10z"/>
<path d="M1339 1388 c-5 -17 -4 -48 3 -48 4 0 8 11 8 25 0 20 -7 34 -11 23z"/>
<path d="M1362 1230 c0 -14 2 -19 5 -12 2 6 2 18 0 25 -3 6 -5 1 -5 -13z"/>
<path d="M891 1126 c0 -11 -8 -28 -18 -38 -9 -10 -11 -18 -6 -18 18 0 35 28
30 52 -3 18 -5 19 -6 4z"/>
<path d="M1361 1124 c0 -11 3 -14 6 -6 3 7 2 16 -1 19 -3 4 -6 -2 -5 -13z"/>
<path d="M2560 1100 c-100 -16 -226 -43 -245 -53 -11 -6 -32 -17 -47 -25 -16
-7 -28 -15 -28 -17 0 -4 59 10 82 20 13 5 19 1 23 -18 4 -14 16 -28 28 -31
l22 -6 -21 -14 c-27 -19 -35 -50 -19 -72 9 -13 14 -14 20 -4 4 7 2 16 -6 22
-11 7 -9 8 5 4 11 -4 22 -2 25 3 4 5 28 35 55 65 53 61 84 72 84 32 0 -14 7
-32 16 -41 15 -15 17 -14 26 9 7 19 17 26 35 26 14 0 25 -5 25 -10 0 -6 8 -10
17 -8 11 2 19 -6 23 -22 7 -22 8 -23 15 -6 26 61 83 78 139 41 l26 -17 0 29
c0 75 -139 119 -300 93z m5 -110 c3 -5 1 -10 -4 -10 -6 0 -11 5 -11 10 0 6 2
10 4 10 3 0 8 -4 11 -10z"/>
<path d="M1411 1024 c0 -11 3 -14 6 -6 3 7 2 16 -1 19 -3 4 -6 -2 -5 -13z"/>
<path d="M1058 959 c-97 -14 -124 -35 -119 -91 3 -31 -35 -41 -89 -24 -60 20
-55 20 -57 -5 -1 -12 1 -19 4 -16 7 7 33 -18 33 -31 0 -10 33 -22 62 -22 12 0
16 6 12 18 -4 13 -1 12 11 -4 15 -21 55 -23 55 -3 0 5 -7 6 -15 3 -8 -4 -15
-2 -15 4 0 26 82 18 103 -10 6 -9 7 -8 3 5 -3 9 -1 17 4 17 6 0 10 8 10 18 0
10 3 22 7 25 9 10 32 -25 33 -48 0 -12 4 -25 8 -30 5 -6 15 -30 22 -55 16 -52
49 -119 67 -138 7 -8 11 -17 9 -20 -2 -4 4 -20 14 -37 13 -23 23 -29 44 -27
14 1 26 -2 26 -8 0 -5 4 -10 8 -10 4 0 8 9 8 20 0 17 -5 20 -28 15 -32 -7 -39
10 -8 20 14 4 20 15 20 34 0 16 7 34 15 41 17 14 21 35 5 25 -6 -4 -24 -4 -40
0 -31 7 -49 40 -32 57 7 7 0 29 -19 66 -26 49 -29 64 -26 124 2 41 -1 72 -7
77 -19 15 -69 19 -128 10z m212 -363 c0 -3 -4 -8 -10 -11 -5 -3 -10 -1 -10 4
0 6 5 11 10 11 6 0 10 -2 10 -4z"/>
<path d="M2630 960 c0 -5 5 -10 10 -10 6 0 10 5 10 10 0 6 -4 10 -10 10 -5 0
-10 -4 -10 -10z"/>
<path d="M2515 950 c-3 -5 -1 -10 4 -10 6 0 11 5 11 10 0 6 -2 10 -4 10 -3 0
-8 -4 -11 -10z"/>
<path d="M2306 891 c-3 -5 1 -11 9 -15 9 -3 15 0 15 9 0 16 -16 20 -24 6z"/>
<path d="M2150 855 c-8 -9 -8 -15 -2 -15 12 0 26 19 19 26 -2 2 -10 -2 -17
-11z"/>
<path d="M2160 820 c0 -5 5 -10 11 -10 5 0 7 5 4 10 -3 6 -8 10 -11 10 -2 0
-4 -4 -4 -10z"/>
<path d="M1913 753 c-7 -2 -13 -9 -13 -14 0 -14 26 -10 40 6 10 12 10 15 -1
14 -8 0 -20 -3 -26 -6z"/>
<path d="M1787 733 c-4 -3 -7 -11 -7 -17 0 -6 5 -5 12 2 6 6 9 14 7 17 -3 3
-9 2 -12 -2z"/>
<path d="M2020 660 c0 -5 5 -10 10 -10 6 0 10 5 10 10 0 6 -4 10 -10 10 -5 0
-10 -4 -10 -10z"/>
<path d="M1250 649 c0 -5 5 -7 10 -4 6 3 10 8 10 11 0 2 -4 4 -10 4 -5 0 -10
-5 -10 -11z"/>
<path d="M1809 618 c-10 -19 -9 -19 15 -3 30 20 31 22 10 22 -8 0 -20 -9 -25
-19z"/>
<path d="M1302 571 c2 -7 7 -12 11 -12 12 1 9 15 -3 20 -7 2 -11 -2 -8 -8z"/>
<path d="M1676 425 c4 -16 10 -37 14 -45 9 -17 10 -22 10 -47 0 -13 3 -14 12
-5 13 13 -2 69 -29 107 -13 19 -14 18 -7 -10z"/>
<path d="M3681 403 c-6 -16 -20 -43 -31 -62 -12 -18 -19 -35 -17 -38 3 -2 20
22 38 54 43 73 43 73 31 73 -6 0 -15 -12 -21 -27z"/>
<path d="M3431 374 c0 -11 3 -14 6 -6 3 7 2 16 -1 19 -3 4 -6 -2 -5 -13z"/>
<path d="M1530 335 c0 -9 7 -18 15 -21 8 -4 15 -15 15 -25 0 -10 5 -19 10 -19
15 0 13 9 -11 46 -23 38 -29 41 -29 19z"/>
<path d="M3440 310 c0 -5 7 -10 15 -10 8 0 15 5 15 10 0 6 -7 10 -15 10 -8 0
-15 -4 -15 -10z"/>
<path d="M1676 259 c-8 -42 0 -50 9 -9 4 17 5 34 2 36 -2 3 -7 -10 -11 -27z"/>
<path d="M3457 238 c3 -24 9 -50 13 -58 4 -8 11 -47 15 -86 6 -66 18 -105 28
-94 3 3 7 37 9 77 4 63 3 72 -14 76 -10 3 -18 11 -18 17 0 7 7 10 15 6 9 -3
15 0 15 10 0 11 -6 15 -19 11 -21 -5 -31 10 -31 48 0 13 -4 26 -9 29 -5 4 -7
-12 -4 -36z"/>
<path d="M3522 240 c0 -14 2 -19 5 -12 2 6 2 18 0 25 -3 6 -5 1 -5 -13z"/>
<path d="M1595 240 c3 -5 8 -10 11 -10 2 0 4 5 4 10 0 6 -5 10 -11 10 -5 0 -7
-4 -4 -10z"/>
<path d="M1615 190 c3 -5 8 -10 11 -10 2 0 4 5 4 10 0 6 -5 10 -11 10 -5 0 -7
-4 -4 -10z"/>
<path d="M1630 150 c0 -5 5 -10 10 -10 6 0 10 5 10 10 0 6 -4 10 -10 10 -5 0
-10 -4 -10 -10z"/>
</g>
</svg>
